<svg width="111" height="31" viewBox="0 0 111 31" fill="none" xmlns="http://www.w3.org/2000/svg">
<g clip-path="url(#clip0_1_338)">
<g clip-path="url(#clip1_1_338)">
<g clip-path="url(#clip2_1_338)">
<path d="M73.2349 30.814C72.734 30.7298 72.2319 30.6564 71.735 30.5575C70.4548 30.3253 69.2837 29.6859 68.3961 28.7345C68.3056 28.637 68.2092 28.5452 68.1076 28.4593C68.0796 28.434 68.0262 28.4393 67.918 28.4166C67.7403 28.9508 67.5747 29.4944 67.3691 30.0193C67.3103 30.1689 67.1327 30.3799 67.0071 30.3812C65.2709 30.4053 63.5493 30.3973 61.7877 30.3973V0.814438H67.8926V11.499C68.0159 11.4357 68.1338 11.3625 68.2452 11.2799C69.0476 10.5005 70.0089 9.90353 71.0634 9.53C72.1179 9.15647 73.2407 9.01515 74.3548 9.11572C75.469 9.2163 76.5483 9.55638 77.5188 10.1127C78.4894 10.669 79.3283 11.4285 79.9781 12.339C81.6209 14.6496 82.1297 17.2873 82.1151 20.0479C82.107 22.2944 81.7237 24.478 80.6272 26.4787C79.2636 28.9695 77.2229 30.4734 74.338 30.7205C74.2313 30.7413 74.127 30.7731 74.0269 30.8153L73.2349 30.814ZM75.9154 19.7007C75.8806 19.3561 75.8379 18.7578 75.7537 18.1648C75.6978 17.837 75.6161 17.5141 75.5093 17.1992C75.0098 15.6205 73.7731 14.6095 72.2212 14.512C70.2712 14.3891 68.8823 15.0783 68.2238 16.7317C67.3196 18.9942 67.325 21.3034 68.4429 23.5031C69.1106 24.8386 70.3367 25.3728 71.8098 25.3622C73.2576 25.3488 74.3875 24.7638 75.11 23.4924C75.7297 22.3972 75.8753 21.1872 75.914 19.7007H75.9154Z" fill="#202020"/>
<path d="M94.604 30.814C94.1045 30.7298 93.6023 30.6564 93.1041 30.5575C91.8246 30.3241 90.654 29.6854 89.7652 28.7358C89.649 28.6116 89.5114 28.5088 89.3151 28.3351C89.1094 28.9468 88.9452 29.4931 88.7381 30.022C88.6794 30.1715 88.5017 30.3826 88.3762 30.3839C86.648 30.4079 84.9198 30.3999 83.1581 30.3999V0.814438H89.2617V11.499C89.3844 11.4347 89.5023 11.3615 89.6143 11.2799C91.0891 9.8442 93.0738 9.05309 95.1319 9.08064C97.19 9.10819 99.1528 9.95214 100.589 11.4269C100.864 11.7115 101.118 12.0164 101.347 12.339C102.991 14.6496 103.5 17.2873 103.484 20.0479C103.476 22.2944 103.091 24.478 101.996 26.4787C100.631 28.9695 98.5906 30.4734 95.7071 30.7205C95.5999 30.7411 95.4952 30.7729 95.3946 30.8153L94.604 30.814ZM88.8837 19.8757C89.0613 20.8106 89.1655 21.7628 89.43 22.671C89.8881 24.2483 91.1996 25.262 92.7235 25.3501C94.6293 25.4583 95.9596 24.7678 96.6514 23.1184C97.5382 21.0029 97.5222 18.8326 96.6727 16.6983C95.5535 13.8856 91.3892 13.8522 89.9522 16.0306C89.1896 17.1952 89.028 18.5107 88.8824 19.8757H88.8837Z" fill="#202020"/>
<path d="M9.12766 30.8139C8.0365 30.631 6.92531 30.5255 5.85819 30.249C2.53663 29.3956 0.46784 26.6683 0.580028 23.3855H6.61145C7.04017 24.9348 7.83349 25.5905 9.48826 25.6052C10.2618 25.6038 11.0319 25.5037 11.7801 25.3074C12.0589 25.2548 12.3101 25.1053 12.4892 24.8853C12.6684 24.6653 12.764 24.3891 12.7591 24.1054C12.779 23.8115 12.6932 23.5202 12.5171 23.284C12.3409 23.0479 12.0862 22.8826 11.7988 22.8179C10.5968 22.492 9.38142 22.2423 8.16471 21.9898C6.63549 21.6733 5.15167 21.2753 3.79875 20.4339C0.446471 18.3491 -0.0984408 12.5233 4.31962 10.3504C7.98441 8.54336 11.7627 8.52199 15.3674 10.6028C17.3895 11.7701 18.4032 13.6479 18.478 16.0586H12.5066C11.8389 14.1888 10.1801 13.4235 8.27557 14.1527C7.69059 14.3758 7.19643 14.707 7.22047 15.4442C7.24451 16.1815 7.69727 16.5501 8.31964 16.693C9.77007 17.0242 11.2579 17.2272 12.6883 17.6105C13.921 17.9404 15.1885 18.2997 16.2943 18.9074C19.867 20.8626 20.1154 27.2493 15.6399 29.4877C14.2835 30.1631 12.8099 30.5711 11.2993 30.6897C11.06 30.7199 10.8227 30.7645 10.5888 30.8233L9.12766 30.8139Z" fill="#202020"/>
<path d="M31.0924 19.3374C34.08 22.9434 37.0263 26.5107 39.9659 30.0767C40.0086 30.1288 39.9659 30.2463 39.9659 30.4039H37.8998C36.3198 30.4039 34.7398 30.3906 33.1598 30.4133C32.9762 30.4283 32.7919 30.3949 32.6253 30.3164C32.4586 30.2379 32.3155 30.117 32.2102 29.9659C30.1829 27.3922 28.1328 24.8546 26.0893 22.2957C26.0079 22.1929 25.9224 22.094 25.7221 21.8536V30.3692H20.0005V0.801071H25.6566V17.0349C25.8877 16.8252 26.0159 16.7304 26.1174 16.6142C28.0526 14.4038 29.9905 12.1988 31.9111 9.97375C32.0414 9.7995 32.2124 9.65974 32.4091 9.56663C32.6058 9.47352 32.8222 9.42989 33.0396 9.43952C35.1952 9.47157 37.3535 9.45288 39.7081 9.45288C39.4784 9.8068 39.3515 10.0686 39.1659 10.2769C36.6808 13.07 34.1918 15.8583 31.6987 18.6416C31.5037 18.8593 31.3194 19.0783 31.0924 19.3374Z" fill="#202020"/>
<path d="M104.549 0.783707H110.58V30.3692H104.549V0.783707Z" fill="#202020"/>
<path d="M52.9076 14.7591C52.1316 14.7591 51.4224 14.7297 50.7172 14.7591C48.1476 14.8927 46.4808 16.4873 46.2231 19.061C46.163 19.6566 46.1309 20.263 46.1296 20.8586C46.1202 23.7728 46.1296 26.687 46.1296 29.6026V30.3599H40.4374V9.49563H45.4845C45.6519 10.4893 45.8202 11.4816 45.9893 12.4726C47.564 9.77209 49.9132 8.83452 52.9089 9.15239L52.9076 14.7591Z" fill="#202020"/>
<path d="M54.0562 9.48093H60.0996V30.3692H54.0562V9.48093Z" fill="#202020"/>
<path d="M57.0959 0.185379C58.565 0.202741 59.8699 0.596734 60.4802 2.05517C61.0772 3.48824 61.0251 4.93466 59.9834 6.19543C59.0872 7.27457 57.1239 7.62582 55.5293 7.06222C54.2137 6.59744 53.5259 5.57306 53.4418 3.97572C53.3269 1.5757 54.6518 0.201406 57.0959 0.185379Z" fill="#202020"/>
</g>
</g>
</g>
<defs>
<clipPath id="clip0_1_338">
<rect width="110" height="30.63" fill="white" transform="translate(0.580017 0.190002)"/>
</clipPath>
<clipPath id="clip1_1_338">
<rect width="110" height="30.63" fill="white" transform="translate(0.580017 0.190002)"/>
</clipPath>
<clipPath id="clip2_1_338">
<rect width="110" height="30.6393" fill="white" transform="translate(0.580017 0.185379)"/>
</clipPath>
</defs>
</svg>
