<svg width="21" height="29" viewBox="0 0 21 29" fill="none" xmlns="http://www.w3.org/2000/svg">
<path d="M4.33017 17.1343L0.327521 25.6703C0.202208 25.9283 0.334893 26.0905 0.755059 26.0094L4.0132 25.3017C4.07768 25.2791 4.14871 25.2846 4.20897 25.3168C4.26924 25.349 4.31321 25.4051 4.33017 25.4713L5.79707 28.4788C5.93713 28.8031 6.09929 28.8695 6.22461 28.6115L10.4853 19.6774L4.33017 17.1343Z" fill="#DE7818"/>
<path d="M16.6698 17.1343L20.6725 25.6703C20.8052 25.9283 20.6651 26.0905 20.2449 26.0094L16.9868 25.3017C16.9223 25.2799 16.8517 25.2858 16.7916 25.3179C16.7316 25.35 16.6875 25.4055 16.6698 25.4713L15.2029 28.4788C15.0629 28.8031 14.9081 28.8695 14.7754 28.6115L10.5147 19.6774L16.6698 17.1343Z" fill="#DE7818"/>
<path d="M9.29847 22.1616C9.29847 22.1689 9.28372 22.1616 9.26898 22.1616C7.03546 21.914 4.94144 20.9523 3.29818 19.4194C3.29081 19.412 3.2687 19.4047 3.27607 19.3973L3.46035 19.0066C3.46772 18.9919 3.48246 19.0287 3.48984 19.0361C5.06731 20.503 7.2566 21.4244 9.49749 21.6972C9.50487 21.6972 9.51961 21.6972 9.51961 21.7045L9.29847 22.1616Z" fill="#B35454"/>
<path d="M10.5 21.7488C16.2932 21.7488 20.9894 17.0525 20.9894 11.2593C20.9894 5.46618 16.2932 0.769897 10.5 0.769897C4.70684 0.769897 0.0105548 5.46618 0.0105548 11.2593C0.0105548 17.0525 4.70684 21.7488 10.5 21.7488Z" fill="#F0CD0A"/>
<path d="M10.5 20.304C15.4952 20.304 19.5447 16.2546 19.5447 11.2594C19.5447 6.26415 15.4952 2.21472 10.5 2.21472C5.50477 2.21472 1.45534 6.26415 1.45534 11.2594C1.45534 16.2546 5.50477 20.304 10.5 20.304Z" fill="#D2B309"/>
<path d="M10.7498 20.2695C15.5822 20.2695 19.4996 16.3521 19.4996 11.5197C19.4996 6.68732 15.5822 2.7699 10.7498 2.7699C5.91742 2.7699 2 6.68732 2 11.5197C2 16.3521 5.91742 20.2695 10.7498 20.2695Z" fill="#E3C101"/>
<path fill-rule="evenodd" clip-rule="evenodd" d="M10.4504 15.5249H12.6008V7.06982H10.4504L8.29999 8.53467V10.3862L10.3391 9.00928H10.4504V15.5249Z" fill="#FFF2B5"/>
<path d="M12.9694 3.85852C16.3262 4.65993 18.7223 7.62144 18.8053 11.0715C18.8884 14.5216 16.6375 17.595 13.3232 18.557C15.3577 17.0017 16.7067 14.348 16.7067 11.3331C16.7067 8.14865 15.2029 5.36965 12.9694 3.85852Z" fill="white" fill-opacity="0.2"/>
<path d="M11.7015 22.1616C11.7089 22.169 11.7236 22.1616 11.731 22.1616C14.0235 21.8741 16.1317 20.9527 17.7166 19.4342C17.7239 19.4268 17.746 19.4194 17.7387 19.4121L17.5544 19.0214C17.547 19.0066 17.5323 19.0435 17.5249 19.0509C15.9474 20.5178 13.7508 21.4245 11.5025 21.6972C11.4951 21.6972 11.4804 21.6972 11.4804 21.7046L11.7015 22.1616Z" fill="#B35454"/>
</svg>
